<?xml version="1.0" encoding="UTF-8"?>
<svg xmlns="http://www.w3.org/2000/svg" viewBox="147.059 155.2 358.2 214.617" width="358.2" height="214.617">
  <path d="M49 441.2c0 17.2 11.6 28.5 29.2 28.5 25.2 0 37.5-30.5 19.6-47.6-17.6-17.5-48.8-5.6-48.8 19.1h0zm207.6-37c4.6 0 5.3-8.4 5.3-74.5v-74.5H6.6v181.4h14.9c13.6 0 14.9-1 20.2-11.3 6.6-13.9 19.6-21 38.1-21 10.9 0 15.6 1.9 24.9 11 6.3 6.1 11.3 13.3 11.3 16.2 0 4.5 7 5.2 56.4 5.2s56.4-.6 56.4-5.2c0-6.9 20.8-27.3 27.8-27.3h0zm10.3 9.7c-24.9 0-37.1 28.2-20.6 47 9.9 11.3 29.2 12 40.8 1.3 10.9-10 10.9-29.5-.3-40.2-5.3-5.5-11.6-8-19.9-8.1h0zm39.8-66c-11.6-4.2-14.9-1.3-14.9 13.3 0 10.7.3 10.7 14.9 10.7 8.3 0 14.9-.7 14.9-1.6 0-5.3-10.3-20.5-14.9-22.4zm14.6-12.7c-9-6.1-42.8-11.3-46.8-6.8-1.7 1.3-2.6 18.8-2.6 39.2 0 31.4.7 36.6 5.3 36.6 7 0 27.9 20.4 27.9 27.2 0 4.2 4.3 5.2 24.2 5.2 26.9 0 35.5-4.9 35.5-19.8-.4-11.6-33.5-74.8-43.5-81.6h0zm14.6 44.4c-1.3 1-13.9 1.9-28.2 1.9h-25.9v-19.4c0-14.9 1.3-19.8 6-22.4 8.3-4.9 17.9-4.2 26.5 1.6 8.3 5.6 24.9 35.1 21.6 38.3h0z" class="D F" transform="matrix(1, 0, 0, 1, 140.459416, -100.000011)" style="stroke: rgb(0, 0, 0); stroke-miterlimit: 10;"></path>
</svg>
