<?xml version="1.0" encoding="UTF-8"?>
<svg id="Layer_1" data-name="Layer 1" xmlns="http://www.w3.org/2000/svg" viewBox="0 0 498.59 304.5">
  <defs>
    <style>
      .cls-1 {
        stroke-width: .9px;
      }

      .cls-1, .cls-2 {
        fill: #f79421;
      }

      .cls-1, .cls-2, .cls-3, .cls-4 {
        stroke: #231f20;
        stroke-miterlimit: 10;
      }

      .cls-3 {
        fill: #fff;
      }

      .cls-4 {
        fill: none;
      }
    </style>
  </defs>
  <polygon class="cls-4" points="33.32 37.25 26.72 116.94 104.99 80.53 240.3 170.36 200.88 68.13 118.19 13.71 33.32 37.25"/>
  <polygon class="cls-4" points="240.3 170.36 138.76 213.71 7.1 216.58 83.83 297.4 180 278.8 240.3 170.36"/>
  <polygon class="cls-4" points="240.3 170.36 330.17 290.8 446.02 281.31 446.02 191.89 240.3 170.36"/>
  <polygon class="cls-4" points="240.3 170.36 280.39 7.1 371.06 40.31 452.62 30.64 491.48 119.72 384.26 113.11 240.3 170.36"/>
  <g>
    <g>
      <path class="cls-1" d="m98.51,209.06c.04,2.27-1.48,3.79-3.8,3.83-3.33.05-5.02-3.95-2.69-6.26,2.29-2.35,6.44-.83,6.49,2.42Z"/>
      <path class="cls-1" d="m70.97,204.62c-.61,0-.72-1.1-.86-9.84l-.16-9.85,16.89-.27,16.89-.27.19,12,.19,12-1.97.03c-1.8.03-1.98-.1-2.7-1.46-.91-1.83-2.63-2.74-5.09-2.7-1.45.02-2.06.29-3.27,1.51-.82.83-1.46,1.78-1.46,2.17,0,.6-.91.7-7.45.8s-7.46.03-7.47-.57c-.01-.9-2.82-3.55-3.74-3.54Z"/>
      <path class="cls-1" d="m69.63,205.92c3.29-.05,4.97,3.65,2.82,6.17-1.29,1.52-3.84,1.65-5.39.26-1.47-1.31-1.51-3.88-.04-5.31.69-.74,1.52-1.1,2.62-1.11Z"/>
    </g>
    <g>
      <path class="cls-1" d="m64.23,197.27c1.53-.58,1.97-.2,2,1.73.02,1.41-.02,1.41-1.95,1.45-1.1.02-1.98-.05-1.98-.18-.01-.69,1.32-2.72,1.93-2.99Z"/>
      <path class="cls-1" d="m56.7,206.52c.03,1.97,1.18,2.6,4.74,2.54,2.63-.04,3.2-.18,3.19-.74-.01-.9,2.71-3.64,3.63-3.66.61,0,.69-.7.62-4.85-.04-2.7-.21-5.01-.43-5.18-.54-.59-5,.17-6.17,1-1.3.92-5.56,9.35-5.57,10.89Zm6.51-10.09c1.13-.79,2.4-.9,3.51-.27.62.33.81.97.84,2.94l.04,2.57-3.42.05c-1.89.03-3.56-.07-3.73-.2-.45-.42,1.69-4.36,2.77-5.1Z"/>
    </g>
  </g>
  <g>
    <circle class="cls-2" cx="330.17" cy="290.8" r="6.6"/>
    <circle class="cls-2" cx="446.02" cy="281.31" r="6.6"/>
    <circle class="cls-2" cx="446.02" cy="191.89" r="6.6"/>
  </g>
  <g>
    <g>
      <rect class="cls-3" x="213.36" y="160.04" width="49.6" height="30.07"/>
      <polygon class="cls-2" points="213.18 156.25 238.44 139.85 263.17 156.25 263.14 190.11 252.92 190.11 252.92 164.07 222.85 164.07 222.85 190.11 213.15 190.11 213.18 156.25"/>
      <line class="cls-2" x1="263.14" y1="156.25" x2="213.15" y2="156.25"/>
    </g>
    <g>
      <g>
        <rect class="cls-2" x="228.28" y="185.13" width="4.72" height="4.97"/>
        <rect class="cls-2" x="235.79" y="185.13" width="4.72" height="4.97"/>
        <rect class="cls-2" x="243.31" y="185.13" width="4.72" height="4.97"/>
      </g>
      <g>
        <rect class="cls-2" x="228.27" y="178.39" width="4.72" height="4.97"/>
        <rect class="cls-2" x="235.78" y="178.39" width="4.72" height="4.97"/>
      </g>
      <rect class="cls-2" x="228.27" y="171.66" width="4.72" height="4.97"/>
    </g>
  </g>
  <g>
    <circle class="cls-2" cx="200.88" cy="68.13" r="6.6"/>
    <circle class="cls-2" cx="33.32" cy="37.25" r="6.6"/>
    <circle class="cls-2" cx="26.72" cy="116.94" r="6.6"/>
    <circle class="cls-2" cx="104.99" cy="80.53" r="6.6"/>
    <circle class="cls-2" cx="118.19" cy="13.71" r="6.6"/>
  </g>
  <g>
    <g>
      <path class="cls-1" d="m136.9,95.03c-1.27,1.88-.84,3.98,1.09,5.29,2.76,1.87,6.36-.56,5.67-3.77-.63-3.22-4.94-4.21-6.76-1.51Z"/>
      <path class="cls-1" d="m162.4,106.35c.51.34,1.21-.53,6.1-7.78l5.52-8.17-14-9.45-14-9.45-6.71,9.94-6.71,9.94,1.64,1.1c1.49,1.01,1.71,1,3.06.25,1.76-1.04,3.7-.86,5.74.52,1.2.81,1.57,1.37,1.91,3.05.24,1.14.25,2.29.04,2.61-.34.5.38,1.08,5.8,4.74s6.23,4.1,6.57,3.61c.5-.75,4.31-1.44,5.07-.92Z"/>
      <path class="cls-1" d="m162.81,108.18c-2.73-1.84-6.16.34-5.73,3.63.25,1.98,2.31,3.47,4.38,3.16,1.94-.29,3.38-2.42,2.94-4.43-.17-1-.67-1.75-1.58-2.36Z"/>
    </g>
    <g>
      <path class="cls-1" d="m172.06,103.88c-.96-1.32-1.54-1.25-2.62.35-.79,1.17-.75,1.2.85,2.28.91.61,1.68,1.03,1.76.93.38-.57.38-3,.02-3.56Z"/>
      <path class="cls-1" d="m174.6,103.57c-.53-1.34-3.85-4.41-4.62-4.21-.28.02-1.68,1.86-3.19,4.1-2.33,3.44-2.64,4.06-2.13,4.41.76.52,1.54,4.3,1.04,5.05-.31.46.09.89,2.27,2.36,2.95,1.99,4.25,2.09,5.35.46.83-1.3,1.87-10.68,1.28-12.17Zm-1.69,5.95c-.22,0-1.67-.82-3.23-1.87l-2.84-1.92,1.44-2.13c1.1-1.63,1.61-2.07,2.31-2.01,1.27.08,2.28.86,2.79,2.14.5,1.22.14,5.68-.47,5.79Z"/>
    </g>
  </g>
  <g>
    <circle class="cls-2" cx="452.62" cy="30.64" r="6.6"/>
    <circle class="cls-2" cx="280.39" cy="7.1" r="6.6"/>
    <circle class="cls-2" cx="371.06" cy="40.31" r="6.6"/>
    <circle class="cls-2" cx="491.48" cy="119.72" r="6.6"/>
    <circle class="cls-2" cx="384.26" cy="113.11" r="6.6"/>
  </g>
  <g>
    <circle class="cls-2" cx="179.54" cy="281.31" r="6.6"/>
    <circle class="cls-2" cx="83.83" cy="297.4" r="6.6"/>
    <circle class="cls-2" cx="7.1" cy="216.58" r="6.6"/>
    <circle class="cls-2" cx="138.76" cy="213.71" r="6.6"/>
  </g>
  <g>
    <g>
      <path class="cls-1" d="m367.1,282.59c.19,2.26,1.84,3.63,4.16,3.44,3.32-.27,4.61-4.42,2.06-6.49-2.51-2.11-6.49-.19-6.22,3.05Z"/>
      <path class="cls-1" d="m394.07,275.46c.61-.05.61-1.17-.11-9.88l-.81-9.82-16.83,1.39-16.83,1.39.99,11.96.99,11.96,1.97-.16c1.79-.15,1.96-.29,2.54-1.72.72-1.91,2.35-2.99,4.8-3.19,1.44-.12,2.08.09,3.4,1.18.9.74,1.63,1.63,1.66,2.01.05.6.97.61,7.49.07s7.43-.7,7.38-1.3c-.07-.9,2.46-3.82,3.38-3.89Z"/>
      <path class="cls-1" d="m395.53,276.63c-3.28.27-4.59,4.12-2.2,6.42,1.44,1.39,3.98,1.26,5.39-.27,1.33-1.44,1.12-4.01-.48-5.29-.76-.67-1.62-.94-2.71-.85Z"/>
    </g>
    <g>
      <path class="cls-1" d="m400.06,267.48c-1.58-.43-1.98,0-1.82,1.91.12,1.41.16,1.41,2.08,1.25,1.09-.09,1.96-.25,1.95-.38-.06-.68-1.58-2.58-2.21-2.78Z"/>
      <path class="cls-1" d="m401.85,265.66c-1.25-.71-5.76-1.03-6.24-.39-.2.19-.14,2.51.08,5.2.34,4.14.49,4.82,1.1,4.77.92-.08,3.9,2.39,3.97,3.28.05.56.62.64,3.25.42,3.54-.29,4.63-1.03,4.46-2.99-.17-1.53-5.23-9.5-6.62-10.29Zm2.41,5.69c-.16.14-1.82.41-3.7.56l-3.41.28-.21-2.56c-.16-1.96-.04-2.62.54-3.01,1.04-.73,2.32-.75,3.52-.08,1.15.64,3.66,4.34,3.26,4.8Z"/>
    </g>
  </g>
  <g>
    <g>
      <path class="cls-1" d="m455.21,112.27c-.16,2.27-1.8,3.65-4.12,3.48-3.33-.24-4.65-4.38-2.13-6.47,2.49-2.14,6.49-.26,6.25,2.99Z"/>
      <path class="cls-1" d="m428.17,105.42c-.61-.04-.62-1.16.01-9.88l.71-9.83,16.85,1.22,16.85,1.22-.87,11.97-.87,11.97-1.97-.14c-1.79-.13-1.96-.27-2.56-1.69-.74-1.9-2.38-2.96-4.83-3.14-1.44-.1-2.08.11-3.39,1.22-.89.75-1.61,1.64-1.64,2.03-.04.6-.97.62-7.49.15s-7.43-.62-7.39-1.22c.06-.9-2.5-3.79-3.42-3.86Z"/>
      <path class="cls-1" d="m426.72,106.6c3.28.24,4.63,4.07,2.26,6.39-1.42,1.4-3.97,1.3-5.4-.22-1.35-1.43-1.16-3.99.43-5.3.75-.68,1.61-.96,2.7-.88Z"/>
    </g>
    <g>
      <path class="cls-1" d="m422.1,97.5c1.57-.44,1.98-.03,1.84,1.89-.1,1.41-.15,1.41-2.07,1.27-1.09-.08-1.96-.23-1.95-.36.05-.68,1.55-2.59,2.18-2.81Z"/>
      <path class="cls-1" d="m413.78,106.05c-.14,1.97.95,2.69,4.49,2.95,2.63.19,3.2.1,3.24-.45.06-.9,3.02-3.39,3.94-3.32.61.04.75-.63,1.05-4.78.19-2.69.23-5.01.02-5.2-.48-.64-5-.28-6.24.45-1.38.8-6.36,8.82-6.51,10.36Zm7.37-9.48c1.19-.69,2.47-.68,3.52.04.59.39.72,1.04.57,3.01l-.19,2.56-3.41-.25c-1.88-.14-3.54-.38-3.7-.53-.41-.46,2.06-4.19,3.21-4.84Z"/>
    </g>
  </g>
</svg>
