<?xml version="1.0" encoding="UTF-8"?>
<svg id="Layer_1" data-name="Layer 1" xmlns="http://www.w3.org/2000/svg" xmlns:xlink="http://www.w3.org/1999/xlink" viewBox="0 0 1874 430.37">
  <defs>
    <style>
      .cls-1 {
        fill: url(#Golden_Ring-4);
      }

      .cls-1, .cls-2, .cls-3, .cls-4, .cls-5, .cls-6, .cls-7, .cls-8, .cls-9 {
        stroke: #f7931e;
        stroke-miterlimit: 10;
      }

      .cls-1, .cls-2, .cls-3, .cls-4, .cls-5, .cls-6, .cls-8, .cls-9 {
        stroke-width: 12px;
      }

      .cls-2 {
        fill: url(#Golden_Ring-7);
      }

      .cls-3 {
        fill: url(#Golden_Ring-5);
      }

      .cls-4 {
        fill: url(#Golden_Ring-2);
      }

      .cls-5 {
        fill: url(#Golden_Ring-3);
      }

      .cls-6 {
        fill: url(#Golden_Ring-6);
      }

      .cls-10, .cls-7 {
        fill: #f7931e;
      }

      .cls-8 {
        fill: url(#Golden_Ring);
      }

      .cls-9 {
        fill: #fff;
      }
    </style>
    <radialGradient id="Golden_Ring" data-name="Golden Ring" cx="1713.91" cy="19.47" fx="1713.91" fy="19.47" r="13.47" gradientUnits="userSpaceOnUse">
      <stop offset=".74" stop-color="#fff" stop-opacity="0"/>
      <stop offset=".76" stop-color="#fff" stop-opacity="0"/>
      <stop offset=".77" stop-color="#fff" stop-opacity=".04"/>
      <stop offset=".79" stop-color="#fff" stop-opacity=".1"/>
      <stop offset=".79" stop-color="#fff" stop-opacity=".18"/>
      <stop offset=".8" stop-color="#fff" stop-opacity=".28"/>
      <stop offset=".81" stop-color="#fff" stop-opacity=".4"/>
      <stop offset=".82" stop-color="#fff" stop-opacity=".5"/>
      <stop offset=".82" stop-color="#dbc01f"/>
      <stop offset=".83" stop-color="#f1dc3a"/>
      <stop offset=".84" stop-color="#f5e13f"/>
      <stop offset=".84" stop-color="#dbc01f"/>
      <stop offset=".85" stop-color="#e1ca45"/>
      <stop offset=".87" stop-color="#e9d876"/>
      <stop offset=".89" stop-color="#efe4a0"/>
      <stop offset=".91" stop-color="#f5eec2"/>
      <stop offset=".93" stop-color="#f9f5dd"/>
      <stop offset=".95" stop-color="#fcfaf0"/>
      <stop offset=".98" stop-color="#fefdfb"/>
      <stop offset="1" stop-color="#fff"/>
    </radialGradient>
    <radialGradient id="Golden_Ring-2" data-name="Golden Ring" cx="1826.4" cy="256.16" fx="1826.4" fy="256.16" r="13.47" xlink:href="#Golden_Ring"/>
    <radialGradient id="Golden_Ring-3" data-name="Golden Ring" cx="1690.48" cy="345.21" fx="1690.48" fy="345.21" r="13.47" xlink:href="#Golden_Ring"/>
    <radialGradient id="Golden_Ring-4" data-name="Golden Ring" cx="1854.52" cy="366.31" fx="1854.52" fy="366.31" r="13.48" xlink:href="#Golden_Ring"/>
    <radialGradient id="Golden_Ring-5" data-name="Golden Ring" cx="1620.21" cy="410.9" fx="1620.21" fy="410.9" r="13.47" xlink:href="#Golden_Ring"/>
    <radialGradient id="Golden_Ring-6" data-name="Golden Ring" cx="1557.25" cy="55.65" fx="1557.25" fy="55.65" r="13.58" xlink:href="#Golden_Ring"/>
    <radialGradient id="Golden_Ring-7" data-name="Golden Ring" cx="1765.14" cy="147.85" fx="1765.14" fy="147.85" r="13.47" xlink:href="#Golden_Ring"/>
  </defs>
  <g>
    <path class="cls-10" d="m21.44,335.02V85.44h107.56c12.18,0,23.43,2.52,33.75,7.56,10.31,5.04,19.16,11.6,26.54,19.69,7.38,8.08,13.18,17.35,17.4,27.77,4.22,10.43,6.33,20.92,6.33,31.46s-1.99,21.74-5.98,32.16c-3.99,10.43-9.55,19.69-16.7,27.77-7.15,8.08-15.82,14.53-26.01,19.33-10.19,4.81-21.39,7.21-33.57,7.21h-40.78v76.63H21.44Zm68.55-136.39h36.21c4.22,0,8.14-1.93,11.78-5.8,3.63-3.87,5.45-10.84,5.45-20.92s-2.11-17.34-6.33-21.09c-4.22-3.75-8.44-5.62-12.65-5.62h-34.45v53.43Z"/>
    <path class="cls-10" d="m236.21,353.65c10.78,3.98,19.92,5.98,27.42,5.98,14.29,0,22.15-8.21,23.55-24.61l-67.14-184.9h68.55l35.15,128.3,28.47-128.3h62.22l-62.57,207.04c-2.81,9.14-6.8,17.4-11.95,24.78-5.16,7.38-11.31,13.71-18.45,18.98-7.15,5.27-15.06,9.32-23.73,12.13-8.67,2.81-17.7,4.22-27.07,4.22-11.95,0-23.44-2.23-34.45-6.68v-56.95Z"/>
    <path class="cls-10" d="m481.92,85.44l48.86,163.46,48.16-163.46h72.06l-91.75,249.58h-56.95l-92.8-249.58h72.41Z"/>
    <path class="cls-10" d="m669.98,335.02V85.44h114.6c12.18,0,23.43,2.52,33.75,7.56,10.31,5.04,19.16,11.6,26.54,19.69,7.38,8.08,13.18,17.35,17.4,27.77,4.22,10.43,6.33,20.92,6.33,31.46,0,14.53-3.16,28.07-9.49,40.6-6.33,12.54-15.12,22.79-26.36,30.76l52.73,91.75h-77.33l-43.94-76.63h-25.66v76.63h-68.55Zm68.55-136.39h43.24c4.22,0,8.14-2.34,11.78-7.03,3.63-4.69,5.45-11.25,5.45-19.69s-2.11-15.29-6.33-19.86c-4.22-4.57-8.44-6.85-12.65-6.85h-41.48v53.43Z"/>
    <path class="cls-10" d="m907.25,335.02V85.44h107.56c12.18,0,23.43,2.52,33.75,7.56,10.31,5.04,19.16,11.6,26.54,19.69,7.38,8.08,13.18,17.35,17.4,27.77,4.22,10.43,6.33,20.92,6.33,31.46s-1.99,21.74-5.97,32.16c-3.99,10.43-9.55,19.69-16.7,27.77-7.15,8.08-15.82,14.53-26.01,19.33-10.2,4.81-21.39,7.21-33.57,7.21h-40.78v76.63h-68.55Zm68.55-136.39h36.21c4.22,0,8.14-1.93,11.78-5.8,3.63-3.87,5.45-10.84,5.45-20.92s-2.11-17.34-6.33-21.09c-4.22-3.75-8.44-5.62-12.65-5.62h-34.45v53.43Z"/>
  </g>
  <g>
    <g>
      <path class="cls-7" d="m1229.06,306.34c0,17.17,11.61,28.5,29.19,28.5,25.21,0,37.48-30.45,19.57-47.61-17.58-17.49-48.75-5.51-48.75,19.11Z"/>
      <path class="cls-7" d="m1436.68,269.41c4.64,0,5.31-8.42,5.31-74.5v-74.5h-255.37v181.38h14.92c13.6,0,14.92-.97,20.23-11.34,6.63-13.93,19.57-21.05,38.14-21.05,10.94,0,15.59,1.94,24.87,11.01,6.3,6.15,11.28,13.28,11.28,16.19,0,4.53,6.96,5.18,56.38,5.18s56.38-.65,56.38-5.18c0-6.8,20.89-27.21,27.86-27.21Z"/>
      <path class="cls-7" d="m1446.96,279.13c-24.87,0-37.14,28.18-20.56,46.97,9.95,11.34,29.19,11.98,40.79,1.3,10.94-10.04,10.94-29.47-.33-40.16-5.31-5.51-11.61-8.1-19.9-8.1Z"/>
    </g>
    <g>
      <path class="cls-7" d="m1486.76,213.05c-11.61-4.21-14.92-1.3-14.92,13.28,0,10.69.33,10.69,14.92,10.69,8.29,0,14.92-.65,14.92-1.62,0-5.18-10.28-20.41-14.92-22.35Z"/>
      <path class="cls-7" d="m1501.35,200.42c-8.95-6.15-42.78-11.34-46.76-6.8-1.66,1.3-2.65,18.79-2.65,39.19,0,31.42.66,36.6,5.31,36.6,6.96,0,27.86,20.41,27.86,27.21,0,4.21,4.31,5.18,24.21,5.18,26.86,0,35.49-4.86,35.49-19.76-.33-11.66-33.5-74.82-43.45-81.62Zm14.59,44.37c-1.33.97-13.93,1.94-28.19,1.94h-25.87v-19.43c0-14.9,1.33-19.76,5.97-22.35,8.29-4.86,17.91-4.21,26.53,1.62,8.29,5.51,24.87,34.98,21.56,38.22Z"/>
    </g>
  </g>
  <circle class="cls-8" cx="1713.91" cy="19.47" r="13.47"/>
  <circle class="cls-4" cx="1826.4" cy="256.16" r="13.47"/>
  <circle class="cls-5" cx="1690.48" cy="345.21" r="13.47"/>
  <circle class="cls-1" cx="1854.52" cy="366.31" r="13.47"/>
  <circle class="cls-3" cx="1620.21" cy="410.9" r="13.47"/>
  <line class="cls-9" x1="1535.41" y1="275.71" x2="1647.5" y2="275.77"/>
  <line class="cls-9" x1="1647.9" y1="275.71" x2="1755.7" y2="156.19"/>
  <ellipse class="cls-6" cx="1557.25" cy="55.65" rx="13.31" ry="13.84"/>
  <line class="cls-9" x1="1568.22" y1="62.46" x2="1752.5" y2="141.77"/>
  <line class="cls-9" x1="1682.5" y1="334.77" x2="1647.9" y2="275.71"/>
  <circle class="cls-2" cx="1765.14" cy="147.85" r="13.47"/>
  <line class="cls-9" x1="1683.05" y1="355.39" x2="1626.81" y2="402.26"/>
  <line class="cls-9" x1="1701.8" y1="214.78" x2="1811.94" y2="254.62"/>
  <line class="cls-9" x1="1826" y1="268.68" x2="1849.44" y2="353.04"/>
  <line class="cls-9" x1="1649.5" y1="97.77" x2="1704.14" y2="31.99"/>
</svg>
